# xmcd
# 
# Track frame offsets:
#     150
#     17886
#     35401
#     49608
#     66096
#     81530
#     101695
#     119848
#     134281
#     148121
#     164647
#     186051
# 
# Disc length: 2741
# 
# Revision: 6
# Processed by: cddbd v1.5.2PL0 Copyright (c) Steve Scherf et al.
# Submitted via: fre:ac v1.0.31
# 
DISCID=b30ab30c
DTITLE=Tom Waits - Closing Time [2018 ANTI Reissue]
DYEAR=1973
DGENRE=Rock/Pop
TTITLE0=Ol' 55
TTITLE1=I Hope That I Don't Fall In Love With You
TTITLE2=Virginia Avenue
TTITLE3=Old Shoes (& Picture Postcards)
TTITLE4=Midnight Lullaby
TTITLE5=Martha
TTITLE6=Rosie
TTITLE7=Lonely
TTITLE8=Ice Cream Man
TTITLE9=Little Trip To Heaven (On The Wings Of Your Love)
TTITLE10=Grapefruit Moon
TTITLE11=Closing Time
EXTD=
EXTT0=
EXTT1=
EXTT2=
EXTT3=
EXTT4=
EXTT5=
EXTT6=
EXTT7=
EXTT8=
EXTT9=
EXTT10=
EXTT11=
PLAYORDER=
